<svg id="Capa_1" enable-background="new 0 0 512 512" height="512" viewBox="0 0 512 512" width="512" xmlns="http://www.w3.org/2000/svg"><g><circle cx="86.202" cy="425.783" r="15"/><path d="m406.184 246.512c26.489-3.897 50.524-15.99 69.506-34.972 18.071-18.07 29.965-40.882 34.396-65.969 4.327-24.504 1.284-49.427-8.801-72.075-4.278-9.606-16.881-11.936-24.309-4.505l-61.448 61.446c-2.537 2.536-6.663 2.536-9.2 0l-24.777-24.775c-2.531-2.532-2.531-6.652 0-9.184l61.456-61.454c7.437-7.436 5.094-20.034-4.505-24.308-22.649-10.086-47.573-13.13-72.077-8.802-25.088 4.43-47.901 16.324-65.972 34.395-18.982 18.981-31.076 43.015-34.973 69.503-3.217 21.86-.65 43.731 7.417 63.937l-44.997 36.961-100.483-100.479 17.678-17.677c6.335-6.334 5.737-16.796-1.293-22.364l-68.012-53.868c-5.969-4.727-14.535-4.233-19.92 1.152l-42.426 42.424c-5.385 5.384-5.881 13.949-1.152 19.919l53.87 68.009c5.568 7.029 16.023 7.635 22.365 1.293l17.677-17.677 98.404 98.4-184.711 151.726c-24.591 19.449-26.713 56.043-4.548 78.206l40.86 40.859c22.162 22.161 58.754 20.046 78.21-4.548l151.731-184.704 15.242 15.242-21.924 21.923c-5.635 5.634-5.88 14.69-.56 20.621l114.305 127.434c22.481 24.95 61.259 25.988 85.03 2.216l16.559-16.559c23.821-23.819 22.692-62.879-2.485-85.279-.011-.009-.021-.018-.03-.027l-128.023-113.28c-5.937-5.253-14.939-4.98-20.547.627l-21.113 21.112-17.322-17.321 36.963-44.995c20.206 8.067 42.078 10.633 63.939 7.417zm-326.962-134.513-35.119-44.336 23.532-23.531 44.338 35.117zm275.73 199.49 117.435 103.91c5.947 5.296 9.35 12.595 9.583 20.555.232 7.966-2.743 15.456-8.379 21.092l-16.559 16.559c-5.611 5.61-13.069 8.593-20.994 8.38-7.93-.207-15.222-3.567-20.513-9.439l-104.798-116.834zm-28.568-100.346-52.949 64.455c-.007.008-.014.017-.021.025l-162.271 197.536c-.069.084-.138.17-.206.256-8.315 10.588-23.973 11.547-33.515 2.006l-40.86-40.859c-9.52-9.519-8.606-25.179 2.007-33.513.086-.067.171-.136.256-.206l197.545-162.268c.006-.005.011-.009.017-.014l64.462-52.951c5.473-4.495 7.055-12.206 3.796-18.493-18.905-36.468-12.065-80.511 17.02-109.596 17.912-17.911 42.161-27.429 66.682-27.429 5.283 0 10.58.442 15.828 1.337l-43.838 43.836c-14.227 14.228-14.227 37.379.001 51.608l24.777 24.775c14.231 14.232 37.392 14.234 51.625 0l43.829-43.827c5.049 29.602-4.322 60.737-26.092 82.507-29.087 29.084-73.131 35.923-109.6 17.02-6.286-3.26-13.998-1.678-18.493 3.795z"/></g></svg>